<?xml version="1.0" encoding="utf-8"?>
<!-- Generator: Adobe Illustrator 16.0.0, SVG Export Plug-In . SVG Version: 6.00 Build 0)  -->
<!DOCTYPE svg PUBLIC "-//W3C//DTD SVG 1.1//EN" "http://www.w3.org/Graphics/SVG/1.1/DTD/svg11.dtd">
<svg version="1.1" id="Layer_1" xmlns="http://www.w3.org/2000/svg" xmlns:xlink="http://www.w3.org/1999/xlink" x="0px" y="0px"
	 width="165px" height="75px" viewBox="0 0 165 75" enable-background="new 0 0 165 75" xml:space="preserve">
<path fill="#972D20" d="M44.434,0H-0.204C0.085,0.164,0.369,0.324,0.663,0.49c0.541,0.305,1.026,0.584,1.586,0.895
	c2.862,1.604,5.974,3.323,9.253,5.107c0.827,0.449,1.713,0.925,2.566,1.384c2.667,1.442,5.468,2.937,8.377,4.471
	c1.043,0.549,2.082,1.099,3.153,1.661c3.895,2.031,7.924,4.115,12.194,6.27l0.004,0.003c5.084,2.563,10.51,5.218,16.078,7.899
	c1.029,0.495,2.047,0.988,3.094,1.487c5.483,2.615,11.188,5.265,17.074,7.928c1.143,0.519,2.316,1.036,3.472,1.555
	c6.211,2.778,12.566,5.569,19.161,8.335c0.104,0.047,0.215,0.089,0.32,0.134c6.467,2.711,13.155,5.392,19.939,8.035
	c0.782,0.304,1.564,0.612,2.355,0.918l-13.996-44.341L44.434,0z"/>
<polygon fill="#DD382F" points="44.438,0 105.294,12.231 101.436,0 "/>
<polygon fill="#EFBF1B" points="105.294,12.231 165,24.258 165,0 101.436,0 "/>
<path fill="#E98224" d="M165,24.258l-59.704-12.026l13.991,44.341c0.586,0.228,1.161,0.455,1.749,0.68
	c5.599,2.148,11.264,4.273,17.038,6.337c0.148,0.053,0.299,0.102,0.446,0.155c5.58,1.989,11.257,3.917,16.978,5.801
	c1.763,0.579,3.543,1.142,5.316,1.712c1.391,0.444,2.789,0.88,4.186,1.317V24.258z"/>
</svg>
